<?xml version="1.0" encoding="UTF-8" standalone="yes"?>
<!DOCTYPE svg PUBLIC "-//W3C//DTD SVG 1.1//EN" "http://www.w3.org/Graphics/SVG/1.1/DTD/svg11.dtd">

<svg width="1440" height="781" viewBox="0 0 1440 781" xmlns="http://www.w3.org/2000/svg" xmlns:xlink="http://www.w3.org/1999/xlink" version="1.1" baseProfile="full">
    <g transform="scale(1,-1) translate(0,-781)">
        <path d="M 308.338571 142.848585 L 24.641429 142.848585 L 19.824487 142.375756 L 15.362167 141.016374 L 11.343125 138.859093 L 7.856014 135.992569 L 4.989491 132.505458 L 2.832211 128.486414 L 1.472829 124.024095 L 1.000000 119.207154 L 1.472829 114.390214 L 2.832211 109.927894 L 4.989491 105.908851 L 7.856014 102.421740 L 11.343125 99.555216 L 15.362167 97.397935 L 19.824487 96.038552 L 24.641429 95.565724 L 308.338571 95.565724 L 312.884003 96.038552 L 317.218880 97.397935 L 324.769362 102.421740 L 327.741164 105.908851 L 330.014805 109.927894 L 331.468384 114.390214 L 331.980000 119.207154 L 331.468384 124.024095 L 330.014805 128.486414 L 327.741164 132.505458 L 324.769362 135.992569 L 317.218880 141.016374 L 312.884003 142.375756 L 308.338571 142.848585 Z M 24.641429 190.131447 L 308.338571 190.131447 L 312.884003 190.604275 L 317.218880 191.963656 L 324.769362 196.987457 L 327.741164 200.474567 L 330.014805 204.493610 L 331.468384 208.955932 L 331.980000 213.772878 L 331.468384 218.589824 L 330.014805 223.052146 L 327.741164 227.071189 L 324.769362 230.558299 L 317.218880 235.582100 L 312.884003 236.941481 L 308.338571 237.414309 L 24.641429 237.414309 L 19.824487 236.941481 L 15.362167 235.582100 L 11.343125 233.424821 L 7.856014 230.558299 L 4.989491 227.071189 L 2.832211 223.052146 L 1.472829 218.589824 L 1.000000 213.772878 L 1.472829 208.955932 L 2.832211 204.493610 L 4.989491 200.474567 L 7.856014 196.987457 L 11.343125 194.120935 L 15.362167 191.963656 L 19.824487 190.604275 L 24.641429 190.131447 Z M 308.338571 48.282862 L 24.641429 48.282862 L 19.824487 47.810033 L 15.362167 46.450650 L 11.343125 44.293369 L 7.856014 41.426845 L 4.989491 37.939734 L 2.832211 33.920691 L 1.472829 29.458371 L 1.000000 24.641431 L 1.472829 19.824490 L 2.832211 15.362171 L 4.989491 11.343128 L 7.856014 7.856016 L 11.343125 4.989492 L 15.362167 2.832211 L 19.824487 1.472829 L 24.641429 1.000000 L 308.338571 1.000000 L 312.884003 1.472829 L 317.218880 2.832211 L 324.769362 7.856016 L 327.741164 11.343128 L 330.014805 15.362171 L 331.468384 19.824490 L 331.980000 24.641431 L 331.468384 29.458371 L 330.014805 33.920691 L 327.741164 37.939734 L 324.769362 41.426845 L 317.218880 46.450650 L 312.884003 47.810033 L 308.338571 48.282862 Z" transform="scale(1.000000,1.000000) translate(533.510000,291.923697)" fill="#ffffff" opacity="1.000000"></path>
    </g>
</svg>